<svg width="2126" height="1249" viewBox="0 0 2126 1249" fill="none" xmlns="http://www.w3.org/2000/svg">
<path d="M954.834 39.2127L1002.31 1.52084C1003.44 0.623057 1005.03 0.593732 1006.19 1.44926L1057.44 39.1466C1059.11 40.3697 1059.19 42.8238 1057.62 44.1615L1006.38 87.7664C1005.15 88.8135 1003.33 88.7791 1002.14 87.6861L954.659 44.0756C953.21 42.7453 953.293 40.4356 954.834 39.2127Z" fill="black"/>
<path d="M954.834 135.813L1002.31 98.1208C1003.44 97.223 1005.03 97.1937 1006.19 98.0492L1057.44 135.747C1059.11 136.97 1059.19 139.424 1057.62 140.761L1006.38 184.366C1005.15 185.414 1003.33 185.379 1002.14 184.286L954.659 140.676C953.21 139.345 953.293 137.036 954.834 135.813Z" fill="black"/>
<path d="M954.834 232.413L1002.31 194.721C1003.44 193.823 1005.03 193.794 1006.19 194.649L1057.44 232.347C1059.11 233.57 1059.19 236.024 1057.62 237.361L1006.38 280.966C1005.15 282.013 1003.33 281.979 1002.14 280.886L954.659 237.276C953.21 235.945 953.293 233.636 954.834 232.413Z" fill="black"/>
<path d="M954.834 329.013L1002.31 291.321C1003.44 290.423 1005.03 290.394 1006.19 291.249L1057.44 328.947C1059.11 330.17 1059.19 332.624 1057.62 333.962L1006.38 377.566C1005.15 378.614 1003.33 378.579 1002.14 377.486L954.659 333.876C953.21 332.545 953.293 330.236 954.834 329.013Z" fill="black"/>
<path d="M954.834 425.613L1002.31 387.921C1003.44 387.023 1005.03 386.994 1006.19 387.849L1057.44 425.547C1059.11 426.77 1059.19 429.224 1057.62 430.562L1006.38 474.166C1005.15 475.214 1003.33 475.179 1002.14 474.086L954.659 430.476C953.21 429.145 953.293 426.836 954.834 425.613Z" fill="black"/>
<path d="M954.834 522.213L1002.31 484.521C1003.44 483.623 1005.03 483.594 1006.19 484.449L1057.44 522.147C1059.11 523.37 1059.19 525.824 1057.62 527.161L1006.38 570.766C1005.15 571.814 1003.33 571.779 1002.14 570.686L954.659 527.076C953.21 525.745 953.293 523.436 954.834 522.213Z" fill="black"/>
<path d="M954.834 618.813L1002.31 581.121C1003.44 580.223 1005.03 580.194 1006.19 581.049L1057.44 618.747C1059.11 619.97 1059.19 622.424 1057.62 623.761L1006.38 667.366C1005.15 668.414 1003.33 668.379 1002.14 667.286L954.659 623.676C953.21 622.345 953.293 620.036 954.834 618.813Z" fill="black"/>
<path d="M954.834 715.413L1002.31 677.721C1003.44 676.823 1005.03 676.794 1006.19 677.649L1057.44 715.347C1059.11 716.57 1059.19 719.024 1057.62 720.361L1006.38 763.966C1005.15 765.013 1003.33 764.979 1002.14 763.886L954.659 720.276C953.21 718.945 953.293 716.636 954.834 715.413Z" fill="black"/>
<path d="M954.834 812.013L1002.31 774.321C1003.44 773.423 1005.03 773.394 1006.19 774.249L1057.44 811.947C1059.11 813.17 1059.19 815.624 1057.62 816.961L1006.38 860.566C1005.15 861.613 1003.33 861.579 1002.14 860.486L954.659 816.876C953.21 815.545 953.293 813.235 954.834 812.013Z" fill="black"/>
<path d="M954.834 908.613L1002.31 870.921C1003.44 870.023 1005.03 869.994 1006.19 870.849L1057.44 908.547C1059.11 909.77 1059.19 912.224 1057.62 913.561L1006.38 957.166C1005.15 958.213 1003.33 958.179 1002.14 957.086L954.659 913.476C953.21 912.145 953.293 909.835 954.834 908.613Z" fill="black"/>
<path d="M954.834 1005.21L1002.31 967.521C1003.44 966.623 1005.03 966.594 1006.19 967.449L1057.44 1005.15C1059.11 1006.37 1059.19 1008.82 1057.62 1010.16L1006.38 1053.77C1005.15 1054.81 1003.33 1054.78 1002.14 1053.69L954.659 1010.08C953.21 1008.75 953.293 1006.44 954.834 1005.21Z" fill="black"/>
<path d="M954.834 1101.81L1002.31 1064.12C1003.44 1063.22 1005.03 1063.19 1006.19 1064.05L1057.44 1101.75C1059.11 1102.97 1059.19 1105.42 1057.62 1106.76L1006.38 1150.37C1005.15 1151.41 1003.33 1151.38 1002.14 1150.29L954.659 1106.68C953.21 1105.35 953.293 1103.04 954.834 1101.81Z" fill="black"/>
<path d="M954.834 1198.41L1002.31 1160.72C1003.44 1159.82 1005.03 1159.79 1006.19 1160.65L1057.44 1198.35C1059.11 1199.57 1059.19 1202.02 1057.62 1203.36L1006.38 1246.97C1005.15 1248.01 1003.33 1247.98 1002.14 1246.89L954.659 1203.28C953.21 1201.95 953.293 1199.64 954.834 1198.41Z" fill="black"/>
<path d="M836.033 39.2127L883.508 1.52084C884.639 0.623057 886.231 0.593732 887.394 1.44926L938.644 39.1466C940.306 40.3697 940.393 42.8238 938.821 44.1615L887.578 87.7664C886.348 88.8135 884.53 88.7791 883.34 87.6861L835.859 44.0756C834.41 42.7453 834.493 40.4356 836.033 39.2127Z" fill="black"/>
<path d="M836.033 135.813L883.508 98.1208C884.639 97.223 886.231 97.1937 887.394 98.0492L938.644 135.747C940.306 136.97 940.393 139.424 938.821 140.761L887.578 184.366C886.348 185.414 884.53 185.379 883.34 184.286L835.859 140.676C834.41 139.345 834.493 137.036 836.033 135.813Z" fill="black"/>
<path d="M836.033 232.413L883.508 194.721C884.639 193.823 886.231 193.794 887.394 194.649L938.644 232.347C940.306 233.57 940.393 236.024 938.821 237.361L887.578 280.966C886.348 282.013 884.53 281.979 883.34 280.886L835.859 237.276C834.41 235.945 834.493 233.636 836.033 232.413Z" fill="black"/>
<path d="M836.033 329.013L883.508 291.321C884.639 290.423 886.231 290.394 887.394 291.249L938.644 328.947C940.306 330.17 940.393 332.624 938.821 333.962L887.578 377.566C886.348 378.614 884.53 378.579 883.34 377.486L835.859 333.876C834.41 332.545 834.493 330.236 836.033 329.013Z" fill="black"/>
<path d="M836.033 425.613L883.508 387.921C884.639 387.023 886.231 386.994 887.394 387.849L938.644 425.547C940.306 426.77 940.393 429.224 938.821 430.562L887.578 474.166C886.348 475.214 884.53 475.179 883.34 474.086L835.859 430.476C834.41 429.145 834.493 426.836 836.033 425.613Z" fill="black"/>
<path d="M836.033 522.213L883.508 484.521C884.639 483.623 886.231 483.594 887.394 484.449L938.644 522.147C940.306 523.37 940.393 525.824 938.821 527.161L887.578 570.766C886.348 571.814 884.53 571.779 883.34 570.686L835.859 527.076C834.41 525.745 834.493 523.436 836.033 522.213Z" fill="black"/>
<path d="M836.033 618.813L883.508 581.121C884.639 580.223 886.231 580.194 887.394 581.049L938.644 618.747C940.306 619.97 940.393 622.424 938.821 623.761L887.578 667.366C886.348 668.414 884.53 668.379 883.34 667.286L835.859 623.676C834.41 622.345 834.493 620.036 836.033 618.813Z" fill="black"/>
<path d="M836.033 715.413L883.508 677.721C884.639 676.823 886.231 676.794 887.394 677.649L938.644 715.347C940.306 716.57 940.393 719.024 938.821 720.361L887.578 763.966C886.348 765.013 884.53 764.979 883.34 763.886L835.859 720.276C834.41 718.945 834.493 716.636 836.033 715.413Z" fill="black"/>
<path d="M836.033 812.013L883.508 774.321C884.639 773.423 886.231 773.394 887.394 774.249L938.644 811.947C940.306 813.17 940.393 815.624 938.821 816.961L887.578 860.566C886.348 861.613 884.53 861.579 883.34 860.486L835.859 816.876C834.41 815.545 834.493 813.235 836.033 812.013Z" fill="black"/>
<path d="M836.033 908.613L883.508 870.921C884.639 870.023 886.231 869.994 887.394 870.849L938.644 908.547C940.306 909.77 940.393 912.224 938.821 913.561L887.578 957.166C886.348 958.213 884.53 958.179 883.34 957.086L835.859 913.476C834.41 912.145 834.493 909.835 836.033 908.613Z" fill="black"/>
<path d="M836.033 1005.21L883.508 967.521C884.639 966.623 886.231 966.594 887.394 967.449L938.644 1005.15C940.306 1006.37 940.393 1008.82 938.821 1010.16L887.578 1053.77C886.348 1054.81 884.53 1054.78 883.34 1053.69L835.859 1010.08C834.41 1008.75 834.493 1006.44 836.033 1005.21Z" fill="black"/>
<path d="M836.033 1101.81L883.508 1064.12C884.639 1063.22 886.231 1063.19 887.394 1064.05L938.644 1101.75C940.306 1102.97 940.393 1105.42 938.821 1106.76L887.578 1150.37C886.348 1151.41 884.53 1151.38 883.34 1150.29L835.859 1106.68C834.41 1105.35 834.493 1103.04 836.033 1101.81Z" fill="black"/>
<path d="M836.033 1198.41L883.508 1160.72C884.639 1159.82 886.231 1159.79 887.394 1160.65L938.644 1198.35C940.306 1199.57 940.393 1202.02 938.821 1203.36L887.578 1246.97C886.348 1248.01 884.53 1247.98 883.34 1246.89L835.859 1203.28C834.41 1201.95 834.493 1199.64 836.033 1198.41Z" fill="black"/>
<path d="M717.234 39.2127L764.708 1.52084C765.839 0.623057 767.431 0.593732 768.594 1.44926L819.844 39.1466C821.506 40.3697 821.593 42.8238 820.021 44.1615L768.778 87.7664C767.548 88.8135 765.73 88.7791 764.54 87.6861L717.059 44.0756C715.61 42.7453 715.693 40.4356 717.234 39.2127Z" fill="black"/>
<path d="M717.234 135.813L764.708 98.1208C765.839 97.223 767.431 97.1937 768.594 98.0492L819.844 135.747C821.506 136.97 821.593 139.424 820.021 140.761L768.778 184.366C767.548 185.414 765.73 185.379 764.54 184.286L717.059 140.676C715.61 139.345 715.693 137.036 717.234 135.813Z" fill="black"/>
<path d="M717.234 232.413L764.708 194.721C765.839 193.823 767.431 193.794 768.594 194.649L819.844 232.347C821.506 233.57 821.593 236.024 820.021 237.361L768.778 280.966C767.548 282.013 765.73 281.979 764.54 280.886L717.059 237.276C715.61 235.945 715.693 233.636 717.234 232.413Z" fill="black"/>
<path d="M717.234 329.013L764.708 291.321C765.839 290.423 767.431 290.394 768.594 291.249L819.844 328.947C821.506 330.17 821.593 332.624 820.021 333.962L768.778 377.566C767.548 378.614 765.73 378.579 764.54 377.486L717.059 333.876C715.61 332.545 715.693 330.236 717.234 329.013Z" fill="black"/>
<path d="M717.234 425.613L764.708 387.921C765.839 387.023 767.431 386.994 768.594 387.849L819.844 425.547C821.506 426.77 821.593 429.224 820.021 430.562L768.778 474.166C767.548 475.214 765.73 475.179 764.54 474.086L717.059 430.476C715.61 429.145 715.693 426.836 717.234 425.613Z" fill="black"/>
<path d="M717.234 522.213L764.708 484.521C765.839 483.623 767.431 483.594 768.594 484.449L819.844 522.147C821.506 523.37 821.593 525.824 820.021 527.161L768.778 570.766C767.548 571.814 765.73 571.779 764.54 570.686L717.059 527.076C715.61 525.745 715.693 523.436 717.234 522.213Z" fill="black"/>
<path d="M717.234 618.813L764.708 581.121C765.839 580.223 767.431 580.194 768.594 581.049L819.844 618.747C821.506 619.97 821.593 622.424 820.021 623.761L768.778 667.366C767.548 668.414 765.73 668.379 764.54 667.286L717.059 623.676C715.61 622.345 715.693 620.036 717.234 618.813Z" fill="black"/>
<path d="M717.234 715.413L764.708 677.721C765.839 676.823 767.431 676.794 768.594 677.649L819.844 715.347C821.506 716.57 821.593 719.024 820.021 720.361L768.778 763.966C767.548 765.013 765.73 764.979 764.54 763.886L717.059 720.276C715.61 718.945 715.693 716.636 717.234 715.413Z" fill="black"/>
<path d="M717.234 812.013L764.708 774.321C765.839 773.423 767.431 773.394 768.594 774.249L819.844 811.947C821.506 813.17 821.593 815.624 820.021 816.961L768.778 860.566C767.548 861.613 765.73 861.579 764.54 860.486L717.059 816.876C715.61 815.545 715.693 813.235 717.234 812.013Z" fill="black"/>
<path d="M717.234 908.613L764.708 870.921C765.839 870.023 767.431 869.994 768.594 870.849L819.844 908.547C821.506 909.77 821.593 912.224 820.021 913.561L768.778 957.166C767.548 958.213 765.73 958.179 764.54 957.086L717.059 913.476C715.61 912.145 715.693 909.835 717.234 908.613Z" fill="black"/>
<path d="M717.234 1005.21L764.708 967.521C765.839 966.623 767.431 966.594 768.594 967.449L819.844 1005.15C821.506 1006.37 821.593 1008.82 820.021 1010.16L768.778 1053.77C767.548 1054.81 765.73 1054.78 764.54 1053.69L717.059 1010.08C715.61 1008.75 715.693 1006.44 717.234 1005.21Z" fill="black"/>
<path d="M717.234 1101.81L764.708 1064.12C765.839 1063.22 767.431 1063.19 768.594 1064.05L819.844 1101.75C821.506 1102.97 821.593 1105.42 820.021 1106.76L768.778 1150.37C767.548 1151.41 765.73 1151.38 764.54 1150.29L717.059 1106.68C715.61 1105.35 715.693 1103.04 717.234 1101.81Z" fill="black"/>
<path d="M717.234 1198.41L764.708 1160.72C765.839 1159.82 767.431 1159.79 768.594 1160.65L819.844 1198.35C821.506 1199.57 821.593 1202.02 820.021 1203.36L768.778 1246.97C767.548 1248.01 765.73 1247.98 764.54 1246.89L717.059 1203.28C715.61 1201.95 715.693 1199.64 717.234 1198.41Z" fill="black"/>
<path d="M598.433 39.2127L645.908 1.52084C647.039 0.623057 648.631 0.593732 649.794 1.44926L701.044 39.1466C702.706 40.3697 702.793 42.8238 701.221 44.1615L649.978 87.7664C648.748 88.8135 646.93 88.7791 645.74 87.6861L598.259 44.0756C596.81 42.7453 596.893 40.4356 598.433 39.2127Z" fill="black"/>
<path d="M598.433 135.813L645.908 98.1208C647.039 97.223 648.631 97.1937 649.794 98.0492L701.044 135.747C702.706 136.97 702.793 139.424 701.221 140.761L649.978 184.366C648.748 185.414 646.93 185.379 645.74 184.286L598.259 140.676C596.81 139.345 596.893 137.036 598.433 135.813Z" fill="black"/>
<path d="M598.433 232.413L645.908 194.721C647.039 193.823 648.631 193.794 649.794 194.649L701.044 232.347C702.706 233.57 702.793 236.024 701.221 237.361L649.978 280.966C648.748 282.013 646.93 281.979 645.74 280.886L598.259 237.276C596.81 235.945 596.893 233.636 598.433 232.413Z" fill="black"/>
<path d="M598.433 329.013L645.908 291.321C647.039 290.423 648.631 290.394 649.794 291.249L701.044 328.947C702.706 330.17 702.793 332.624 701.221 333.962L649.978 377.566C648.748 378.614 646.93 378.579 645.74 377.486L598.259 333.876C596.81 332.545 596.893 330.236 598.433 329.013Z" fill="black"/>
<path d="M598.433 425.613L645.908 387.921C647.039 387.023 648.631 386.994 649.794 387.849L701.044 425.547C702.706 426.77 702.793 429.224 701.221 430.562L649.978 474.166C648.748 475.214 646.93 475.179 645.74 474.086L598.259 430.476C596.81 429.145 596.893 426.836 598.433 425.613Z" fill="black"/>
<path d="M598.433 522.213L645.908 484.521C647.039 483.623 648.631 483.594 649.794 484.449L701.044 522.147C702.706 523.37 702.793 525.824 701.221 527.161L649.978 570.766C648.748 571.814 646.93 571.779 645.74 570.686L598.259 527.076C596.81 525.745 596.893 523.436 598.433 522.213Z" fill="black"/>
<path d="M598.433 618.813L645.908 581.121C647.039 580.223 648.631 580.194 649.794 581.049L701.044 618.747C702.706 619.97 702.793 622.424 701.221 623.761L649.978 667.366C648.748 668.414 646.93 668.379 645.74 667.286L598.259 623.676C596.81 622.345 596.893 620.036 598.433 618.813Z" fill="black"/>
<path d="M598.433 715.413L645.908 677.721C647.039 676.823 648.631 676.794 649.794 677.649L701.044 715.347C702.706 716.57 702.793 719.024 701.221 720.361L649.978 763.966C648.748 765.013 646.93 764.979 645.74 763.886L598.259 720.276C596.81 718.945 596.893 716.636 598.433 715.413Z" fill="black"/>
<path d="M598.433 812.013L645.908 774.321C647.039 773.423 648.631 773.394 649.794 774.249L701.044 811.947C702.706 813.17 702.793 815.624 701.221 816.961L649.978 860.566C648.748 861.613 646.93 861.579 645.74 860.486L598.259 816.876C596.81 815.545 596.893 813.235 598.433 812.013Z" fill="black"/>
<path d="M598.433 908.613L645.908 870.921C647.039 870.023 648.631 869.994 649.794 870.849L701.044 908.547C702.706 909.77 702.793 912.224 701.221 913.561L649.978 957.166C648.748 958.213 646.93 958.179 645.74 957.086L598.259 913.476C596.81 912.145 596.893 909.835 598.433 908.613Z" fill="black"/>
<path d="M598.433 1005.21L645.908 967.521C647.039 966.623 648.631 966.594 649.794 967.449L701.044 1005.15C702.706 1006.37 702.793 1008.82 701.221 1010.16L649.978 1053.77C648.748 1054.81 646.93 1054.78 645.74 1053.69L598.259 1010.08C596.81 1008.75 596.893 1006.44 598.433 1005.21Z" fill="black"/>
<path d="M598.433 1101.81L645.908 1064.12C647.039 1063.22 648.631 1063.19 649.794 1064.05L701.044 1101.75C702.706 1102.97 702.793 1105.42 701.221 1106.76L649.978 1150.37C648.748 1151.41 646.93 1151.38 645.74 1150.29L598.259 1106.68C596.81 1105.35 596.893 1103.04 598.433 1101.81Z" fill="black"/>
<path d="M598.433 1198.41L645.908 1160.72C647.039 1159.82 648.631 1159.79 649.794 1160.65L701.044 1198.35C702.706 1199.57 702.793 1202.02 701.221 1203.36L649.978 1246.97C648.748 1248.01 646.93 1247.98 645.74 1246.89L598.259 1203.28C596.81 1201.95 596.893 1199.64 598.433 1198.41Z" fill="black"/>
<path d="M479.634 39.2127L527.108 1.52084C528.239 0.623057 529.831 0.593732 530.994 1.44926L582.244 39.1466C583.906 40.3697 583.993 42.8238 582.421 44.1615L531.178 87.7664C529.948 88.8135 528.13 88.7791 526.94 87.6861L479.459 44.0756C478.01 42.7453 478.093 40.4356 479.634 39.2127Z" fill="black"/>
<path d="M479.634 135.813L527.108 98.1208C528.239 97.223 529.831 97.1937 530.994 98.0492L582.244 135.747C583.906 136.97 583.993 139.424 582.421 140.761L531.178 184.366C529.948 185.414 528.13 185.379 526.94 184.286L479.459 140.676C478.01 139.345 478.093 137.036 479.634 135.813Z" fill="black"/>
<path d="M479.634 232.413L527.108 194.721C528.239 193.823 529.831 193.794 530.994 194.649L582.244 232.347C583.906 233.57 583.993 236.024 582.421 237.361L531.178 280.966C529.948 282.013 528.13 281.979 526.94 280.886L479.459 237.276C478.01 235.945 478.093 233.636 479.634 232.413Z" fill="black"/>
<path d="M479.634 329.013L527.108 291.321C528.239 290.423 529.831 290.394 530.994 291.249L582.244 328.947C583.906 330.17 583.993 332.624 582.421 333.962L531.178 377.566C529.948 378.614 528.13 378.579 526.94 377.486L479.459 333.876C478.01 332.545 478.093 330.236 479.634 329.013Z" fill="black"/>
<path d="M479.634 425.613L527.108 387.921C528.239 387.023 529.831 386.994 530.994 387.849L582.244 425.547C583.906 426.77 583.993 429.224 582.421 430.562L531.178 474.166C529.948 475.214 528.13 475.179 526.94 474.086L479.459 430.476C478.01 429.145 478.093 426.836 479.634 425.613Z" fill="black"/>
<path d="M479.634 522.213L527.108 484.521C528.239 483.623 529.831 483.594 530.994 484.449L582.244 522.147C583.906 523.37 583.993 525.824 582.421 527.161L531.178 570.766C529.948 571.814 528.13 571.779 526.94 570.686L479.459 527.076C478.01 525.745 478.093 523.436 479.634 522.213Z" fill="black"/>
<path d="M479.634 618.813L527.108 581.121C528.239 580.223 529.831 580.194 530.994 581.049L582.244 618.747C583.906 619.97 583.993 622.424 582.421 623.761L531.178 667.366C529.948 668.414 528.13 668.379 526.94 667.286L479.459 623.676C478.01 622.345 478.093 620.036 479.634 618.813Z" fill="black"/>
<path d="M479.634 715.413L527.108 677.721C528.239 676.823 529.831 676.794 530.994 677.649L582.244 715.347C583.906 716.57 583.993 719.024 582.421 720.361L531.178 763.966C529.948 765.013 528.13 764.979 526.94 763.886L479.459 720.276C478.01 718.945 478.093 716.636 479.634 715.413Z" fill="black"/>
<path d="M479.634 812.013L527.108 774.321C528.239 773.423 529.831 773.394 530.994 774.249L582.244 811.947C583.906 813.17 583.993 815.624 582.421 816.961L531.178 860.566C529.948 861.613 528.13 861.579 526.94 860.486L479.459 816.876C478.01 815.545 478.093 813.235 479.634 812.013Z" fill="black"/>
<path d="M479.634 908.613L527.108 870.921C528.239 870.023 529.831 869.994 530.994 870.849L582.244 908.547C583.906 909.77 583.993 912.224 582.421 913.561L531.178 957.166C529.948 958.213 528.13 958.179 526.94 957.086L479.459 913.476C478.01 912.145 478.093 909.835 479.634 908.613Z" fill="black"/>
<path d="M479.634 1005.21L527.108 967.521C528.239 966.623 529.831 966.594 530.994 967.449L582.244 1005.15C583.906 1006.37 583.993 1008.82 582.421 1010.16L531.178 1053.77C529.948 1054.81 528.13 1054.78 526.94 1053.69L479.459 1010.08C478.01 1008.75 478.093 1006.44 479.634 1005.21Z" fill="black"/>
<path d="M479.634 1101.81L527.108 1064.12C528.239 1063.22 529.831 1063.19 530.994 1064.05L582.244 1101.75C583.906 1102.97 583.993 1105.42 582.421 1106.76L531.178 1150.37C529.948 1151.41 528.13 1151.38 526.94 1150.29L479.459 1106.68C478.01 1105.35 478.093 1103.04 479.634 1101.81Z" fill="black"/>
<path d="M479.634 1198.41L527.108 1160.72C528.239 1159.82 529.831 1159.79 530.994 1160.65L582.244 1198.35C583.906 1199.57 583.993 1202.02 582.421 1203.36L531.178 1246.97C529.948 1248.01 528.13 1247.98 526.94 1246.89L479.459 1203.28C478.01 1201.95 478.093 1199.64 479.634 1198.41Z" fill="black"/>
<path d="M360.834 39.2127L408.308 1.52084C409.439 0.623057 411.031 0.593732 412.194 1.44926L463.444 39.1466C465.106 40.3697 465.193 42.8238 463.621 44.1615L412.378 87.7664C411.148 88.8135 409.33 88.7791 408.14 87.6861L360.659 44.0756C359.21 42.7453 359.293 40.4356 360.834 39.2127Z" fill="black"/>
<path d="M360.834 135.813L408.308 98.1208C409.439 97.223 411.031 97.1937 412.194 98.0492L463.444 135.747C465.106 136.97 465.193 139.424 463.621 140.761L412.378 184.366C411.148 185.414 409.33 185.379 408.14 184.286L360.659 140.676C359.21 139.345 359.293 137.036 360.834 135.813Z" fill="black"/>
<path d="M360.834 232.413L408.308 194.721C409.439 193.823 411.031 193.794 412.194 194.649L463.444 232.347C465.106 233.57 465.193 236.024 463.621 237.361L412.378 280.966C411.148 282.013 409.33 281.979 408.14 280.886L360.659 237.276C359.21 235.945 359.293 233.636 360.834 232.413Z" fill="black"/>
<path d="M360.834 329.013L408.308 291.321C409.439 290.423 411.031 290.394 412.194 291.249L463.444 328.947C465.106 330.17 465.193 332.624 463.621 333.962L412.378 377.566C411.148 378.614 409.33 378.579 408.14 377.486L360.659 333.876C359.21 332.545 359.293 330.236 360.834 329.013Z" fill="black"/>
<path d="M360.834 425.613L408.308 387.921C409.439 387.023 411.031 386.994 412.194 387.849L463.444 425.547C465.106 426.77 465.193 429.224 463.621 430.562L412.378 474.166C411.148 475.214 409.33 475.179 408.14 474.086L360.659 430.476C359.21 429.145 359.293 426.836 360.834 425.613Z" fill="black"/>
<path d="M360.834 522.213L408.308 484.521C409.439 483.623 411.031 483.594 412.194 484.449L463.444 522.147C465.106 523.37 465.193 525.824 463.621 527.161L412.378 570.766C411.148 571.814 409.33 571.779 408.14 570.686L360.659 527.076C359.21 525.745 359.293 523.436 360.834 522.213Z" fill="black"/>
<path d="M360.834 618.813L408.308 581.121C409.439 580.223 411.031 580.194 412.194 581.049L463.444 618.747C465.106 619.97 465.193 622.424 463.621 623.761L412.378 667.366C411.148 668.414 409.33 668.379 408.14 667.286L360.659 623.676C359.21 622.345 359.293 620.036 360.834 618.813Z" fill="black"/>
<path d="M360.834 715.413L408.308 677.721C409.439 676.823 411.031 676.794 412.194 677.649L463.444 715.347C465.106 716.57 465.193 719.024 463.621 720.361L412.378 763.966C411.148 765.013 409.33 764.979 408.14 763.886L360.659 720.276C359.21 718.945 359.293 716.636 360.834 715.413Z" fill="black"/>
<path d="M360.834 812.013L408.308 774.321C409.439 773.423 411.031 773.394 412.194 774.249L463.444 811.947C465.106 813.17 465.193 815.624 463.621 816.961L412.378 860.566C411.148 861.613 409.33 861.579 408.14 860.486L360.659 816.876C359.21 815.545 359.293 813.235 360.834 812.013Z" fill="black"/>
<path d="M360.834 908.613L408.308 870.921C409.439 870.023 411.031 869.994 412.194 870.849L463.444 908.547C465.106 909.77 465.193 912.224 463.621 913.561L412.378 957.166C411.148 958.213 409.33 958.179 408.14 957.086L360.659 913.476C359.21 912.145 359.293 909.835 360.834 908.613Z" fill="black"/>
<path d="M360.834 1005.21L408.308 967.521C409.439 966.623 411.031 966.594 412.194 967.449L463.444 1005.15C465.106 1006.37 465.193 1008.82 463.621 1010.16L412.378 1053.77C411.148 1054.81 409.33 1054.78 408.14 1053.69L360.659 1010.08C359.21 1008.75 359.293 1006.44 360.834 1005.21Z" fill="black"/>
<path d="M360.834 1101.81L408.308 1064.12C409.439 1063.22 411.031 1063.19 412.194 1064.05L463.444 1101.75C465.106 1102.97 465.193 1105.42 463.621 1106.76L412.378 1150.37C411.148 1151.41 409.33 1151.38 408.14 1150.29L360.659 1106.68C359.21 1105.35 359.293 1103.04 360.834 1101.81Z" fill="black"/>
<path d="M360.834 1198.41L408.308 1160.72C409.439 1159.82 411.031 1159.79 412.194 1160.65L463.444 1198.35C465.106 1199.57 465.193 1202.02 463.621 1203.36L412.378 1246.97C411.148 1248.01 409.33 1247.98 408.14 1246.89L360.659 1203.28C359.21 1201.95 359.293 1199.64 360.834 1198.41Z" fill="black"/>
<path d="M242.034 39.2127L289.508 1.52084C290.639 0.623057 292.231 0.593732 293.394 1.44926L344.644 39.1466C346.306 40.3697 346.393 42.8238 344.821 44.1615L293.578 87.7664C292.348 88.8135 290.53 88.7791 289.34 87.6861L241.859 44.0756C240.41 42.7453 240.493 40.4356 242.034 39.2127Z" fill="black"/>
<path d="M242.034 135.813L289.508 98.1208C290.639 97.223 292.231 97.1937 293.394 98.0492L344.644 135.747C346.306 136.97 346.393 139.424 344.821 140.761L293.578 184.366C292.348 185.414 290.53 185.379 289.34 184.286L241.859 140.676C240.41 139.345 240.493 137.036 242.034 135.813Z" fill="black"/>
<path d="M242.034 232.413L289.508 194.721C290.639 193.823 292.231 193.794 293.394 194.649L344.644 232.347C346.306 233.57 346.393 236.024 344.821 237.361L293.578 280.966C292.348 282.013 290.53 281.979 289.34 280.886L241.859 237.276C240.41 235.945 240.493 233.636 242.034 232.413Z" fill="black"/>
<path d="M242.034 329.013L289.508 291.321C290.639 290.423 292.231 290.394 293.394 291.249L344.644 328.947C346.306 330.17 346.393 332.624 344.821 333.962L293.578 377.566C292.348 378.614 290.53 378.579 289.34 377.486L241.859 333.876C240.41 332.545 240.493 330.236 242.034 329.013Z" fill="black"/>
<path d="M242.034 425.613L289.508 387.921C290.639 387.023 292.231 386.994 293.394 387.849L344.644 425.547C346.306 426.77 346.393 429.224 344.821 430.562L293.578 474.166C292.348 475.214 290.53 475.179 289.34 474.086L241.859 430.476C240.41 429.145 240.493 426.836 242.034 425.613Z" fill="black"/>
<path d="M242.034 522.213L289.508 484.521C290.639 483.623 292.231 483.594 293.394 484.449L344.644 522.147C346.306 523.37 346.393 525.824 344.821 527.161L293.578 570.766C292.348 571.814 290.53 571.779 289.34 570.686L241.859 527.076C240.41 525.745 240.493 523.436 242.034 522.213Z" fill="black"/>
<path d="M242.034 618.813L289.508 581.121C290.639 580.223 292.231 580.194 293.394 581.049L344.644 618.747C346.306 619.97 346.393 622.424 344.821 623.761L293.578 667.366C292.348 668.414 290.53 668.379 289.34 667.286L241.859 623.676C240.41 622.345 240.493 620.036 242.034 618.813Z" fill="black"/>
<path d="M242.034 715.413L289.508 677.721C290.639 676.823 292.231 676.794 293.394 677.649L344.644 715.347C346.306 716.57 346.393 719.024 344.821 720.361L293.578 763.966C292.348 765.013 290.53 764.979 289.34 763.886L241.859 720.276C240.41 718.945 240.493 716.636 242.034 715.413Z" fill="black"/>
<path d="M242.034 812.013L289.508 774.321C290.639 773.423 292.231 773.394 293.394 774.249L344.644 811.947C346.306 813.17 346.393 815.624 344.821 816.961L293.578 860.566C292.348 861.613 290.53 861.579 289.34 860.486L241.859 816.876C240.41 815.545 240.493 813.235 242.034 812.013Z" fill="black"/>
<path d="M242.034 908.613L289.508 870.921C290.639 870.023 292.231 869.994 293.394 870.849L344.644 908.547C346.306 909.77 346.393 912.224 344.821 913.561L293.578 957.166C292.348 958.213 290.53 958.179 289.34 957.086L241.859 913.476C240.41 912.145 240.493 909.835 242.034 908.613Z" fill="black"/>
<path d="M242.034 1005.21L289.508 967.521C290.639 966.623 292.231 966.594 293.394 967.449L344.644 1005.15C346.306 1006.37 346.393 1008.82 344.821 1010.16L293.578 1053.77C292.348 1054.81 290.53 1054.78 289.34 1053.69L241.859 1010.08C240.41 1008.75 240.493 1006.44 242.034 1005.21Z" fill="black"/>
<path d="M242.034 1101.81L289.508 1064.12C290.639 1063.22 292.231 1063.19 293.394 1064.05L344.644 1101.75C346.306 1102.97 346.393 1105.42 344.821 1106.76L293.578 1150.37C292.348 1151.41 290.53 1151.38 289.34 1150.29L241.859 1106.68C240.41 1105.35 240.493 1103.04 242.034 1101.81Z" fill="black"/>
<path d="M242.034 1198.41L289.508 1160.72C290.639 1159.82 292.231 1159.79 293.394 1160.65L344.644 1198.35C346.306 1199.57 346.393 1202.02 344.821 1203.36L293.578 1246.97C292.348 1248.01 290.53 1247.98 289.34 1246.89L241.859 1203.28C240.41 1201.95 240.493 1199.64 242.034 1198.41Z" fill="black"/>
<path d="M123.234 39.2127L170.708 1.52084C171.839 0.623057 173.431 0.593732 174.594 1.44926L225.844 39.1466C227.506 40.3697 227.593 42.8238 226.021 44.1615L174.778 87.7664C173.548 88.8135 171.73 88.7791 170.54 87.6861L123.059 44.0756C121.61 42.7453 121.693 40.4356 123.234 39.2127Z" fill="black"/>
<path d="M123.234 135.813L170.708 98.1208C171.839 97.223 173.431 97.1937 174.594 98.0492L225.844 135.747C227.506 136.97 227.593 139.424 226.021 140.761L174.778 184.366C173.548 185.414 171.73 185.379 170.54 184.286L123.059 140.676C121.61 139.345 121.693 137.036 123.234 135.813Z" fill="black"/>
<path d="M123.234 232.413L170.708 194.721C171.839 193.823 173.431 193.794 174.594 194.649L225.844 232.347C227.506 233.57 227.593 236.024 226.021 237.361L174.778 280.966C173.548 282.013 171.73 281.979 170.54 280.886L123.059 237.276C121.61 235.945 121.693 233.636 123.234 232.413Z" fill="black"/>
<path d="M123.234 329.013L170.708 291.321C171.839 290.423 173.431 290.394 174.594 291.249L225.844 328.947C227.506 330.17 227.593 332.624 226.021 333.962L174.778 377.566C173.548 378.614 171.73 378.579 170.54 377.486L123.059 333.876C121.61 332.545 121.693 330.236 123.234 329.013Z" fill="black"/>
<path d="M123.234 425.613L170.708 387.921C171.839 387.023 173.431 386.994 174.594 387.849L225.844 425.547C227.506 426.77 227.593 429.224 226.021 430.562L174.778 474.166C173.548 475.214 171.73 475.179 170.54 474.086L123.059 430.476C121.61 429.145 121.693 426.836 123.234 425.613Z" fill="black"/>
<path d="M123.234 522.213L170.708 484.521C171.839 483.623 173.431 483.594 174.594 484.449L225.844 522.147C227.506 523.37 227.593 525.824 226.021 527.161L174.778 570.766C173.548 571.814 171.73 571.779 170.54 570.686L123.059 527.076C121.61 525.745 121.693 523.436 123.234 522.213Z" fill="black"/>
<path d="M123.234 618.813L170.708 581.121C171.839 580.223 173.431 580.194 174.594 581.049L225.844 618.747C227.506 619.97 227.593 622.424 226.021 623.761L174.778 667.366C173.548 668.414 171.73 668.379 170.54 667.286L123.059 623.676C121.61 622.345 121.693 620.036 123.234 618.813Z" fill="black"/>
<path d="M123.234 715.413L170.708 677.721C171.839 676.823 173.431 676.794 174.594 677.649L225.844 715.347C227.506 716.57 227.593 719.024 226.021 720.361L174.778 763.966C173.548 765.013 171.73 764.979 170.54 763.886L123.059 720.276C121.61 718.945 121.693 716.636 123.234 715.413Z" fill="black"/>
<path d="M123.234 812.013L170.708 774.321C171.839 773.423 173.431 773.394 174.594 774.249L225.844 811.947C227.506 813.17 227.593 815.624 226.021 816.961L174.778 860.566C173.548 861.613 171.73 861.579 170.54 860.486L123.059 816.876C121.61 815.545 121.693 813.235 123.234 812.013Z" fill="black"/>
<path d="M123.234 908.613L170.708 870.921C171.839 870.023 173.431 869.994 174.594 870.849L225.844 908.547C227.506 909.77 227.593 912.224 226.021 913.561L174.778 957.166C173.548 958.213 171.73 958.179 170.54 957.086L123.059 913.476C121.61 912.145 121.693 909.835 123.234 908.613Z" fill="black"/>
<path d="M123.234 1005.21L170.708 967.521C171.839 966.623 173.431 966.594 174.594 967.449L225.844 1005.15C227.506 1006.37 227.593 1008.82 226.021 1010.16L174.778 1053.77C173.548 1054.81 171.73 1054.78 170.54 1053.69L123.059 1010.08C121.61 1008.75 121.693 1006.44 123.234 1005.21Z" fill="black"/>
<path d="M123.234 1101.81L170.708 1064.12C171.839 1063.22 173.431 1063.19 174.594 1064.05L225.844 1101.75C227.506 1102.97 227.593 1105.42 226.021 1106.76L174.778 1150.37C173.548 1151.41 171.73 1151.38 170.54 1150.29L123.059 1106.68C121.61 1105.35 121.693 1103.04 123.234 1101.81Z" fill="black"/>
<path d="M123.234 1198.41L170.708 1160.72C171.839 1159.82 173.431 1159.79 174.594 1160.65L225.844 1198.35C227.506 1199.57 227.593 1202.02 226.021 1203.36L174.778 1246.97C173.548 1248.01 171.73 1247.98 170.54 1246.89L123.059 1203.28C121.61 1201.95 121.693 1199.64 123.234 1198.41Z" fill="black"/>
<path d="M4.43358 39.2127L51.9081 1.52084C53.0389 0.623057 54.6308 0.593732 55.7939 1.44926L107.044 39.1466C108.706 40.3697 108.793 42.8238 107.221 44.1615L55.9784 87.7664C54.7479 88.8135 52.9299 88.7791 51.7399 87.6861L4.25869 44.0756C2.81028 42.7453 2.89335 40.4356 4.43358 39.2127Z" fill="black"/>
<path d="M4.43358 135.813L51.9081 98.1208C53.0389 97.223 54.6308 97.1937 55.7939 98.0492L107.044 135.747C108.706 136.97 108.793 139.424 107.221 140.761L55.9784 184.366C54.7479 185.414 52.9299 185.379 51.7399 184.286L4.25869 140.676C2.81028 139.345 2.89335 137.036 4.43358 135.813Z" fill="black"/>
<path d="M4.43358 232.413L51.9081 194.721C53.0389 193.823 54.6308 193.794 55.7939 194.649L107.044 232.347C108.706 233.57 108.793 236.024 107.221 237.361L55.9784 280.966C54.7479 282.013 52.9299 281.979 51.7399 280.886L4.25869 237.276C2.81028 235.945 2.89335 233.636 4.43358 232.413Z" fill="black"/>
<path d="M4.43358 329.013L51.9081 291.321C53.0389 290.423 54.6308 290.394 55.7939 291.249L107.044 328.947C108.706 330.17 108.793 332.624 107.221 333.962L55.9784 377.566C54.7479 378.614 52.9299 378.579 51.7399 377.486L4.25869 333.876C2.81028 332.545 2.89335 330.236 4.43358 329.013Z" fill="black"/>
<path d="M4.43358 425.613L51.9081 387.921C53.0389 387.023 54.6308 386.994 55.7939 387.849L107.044 425.547C108.706 426.77 108.793 429.224 107.221 430.562L55.9784 474.166C54.7479 475.214 52.9299 475.179 51.7399 474.086L4.25869 430.476C2.81028 429.145 2.89335 426.836 4.43358 425.613Z" fill="black"/>
<path d="M4.43358 522.213L51.9081 484.521C53.0389 483.623 54.6308 483.594 55.7939 484.449L107.044 522.147C108.706 523.37 108.793 525.824 107.221 527.161L55.9784 570.766C54.7479 571.814 52.9299 571.779 51.7399 570.686L4.25869 527.076C2.81028 525.745 2.89335 523.436 4.43358 522.213Z" fill="black"/>
<path d="M4.43358 618.813L51.9081 581.121C53.0389 580.223 54.6308 580.194 55.7939 581.049L107.044 618.747C108.706 619.97 108.793 622.424 107.221 623.761L55.9784 667.366C54.7479 668.414 52.9299 668.379 51.7399 667.286L4.25869 623.676C2.81028 622.345 2.89335 620.036 4.43358 618.813Z" fill="black"/>
<path d="M4.43358 715.413L51.9081 677.721C53.0389 676.823 54.6308 676.794 55.7939 677.649L107.044 715.347C108.706 716.57 108.793 719.024 107.221 720.361L55.9784 763.966C54.7479 765.013 52.9299 764.979 51.7399 763.886L4.25869 720.276C2.81028 718.945 2.89335 716.636 4.43358 715.413Z" fill="black"/>
<path d="M4.43358 812.013L51.9081 774.321C53.0389 773.423 54.6308 773.394 55.7939 774.249L107.044 811.947C108.706 813.17 108.793 815.624 107.221 816.961L55.9784 860.566C54.7479 861.613 52.9299 861.579 51.7399 860.486L4.25869 816.876C2.81028 815.545 2.89335 813.235 4.43358 812.013Z" fill="black"/>
<path d="M4.43358 908.613L51.9081 870.921C53.0389 870.023 54.6308 869.994 55.7939 870.849L107.044 908.547C108.706 909.77 108.793 912.224 107.221 913.561L55.9784 957.166C54.7479 958.213 52.9299 958.179 51.7399 957.086L4.25869 913.476C2.81028 912.145 2.89335 909.835 4.43358 908.613Z" fill="black"/>
<path d="M4.43358 1005.21L51.9081 967.521C53.0389 966.623 54.6308 966.594 55.7939 967.449L107.044 1005.15C108.706 1006.37 108.793 1008.82 107.221 1010.16L55.9784 1053.77C54.7479 1054.81 52.9299 1054.78 51.7399 1053.69L4.25869 1010.08C2.81028 1008.75 2.89335 1006.44 4.43358 1005.21Z" fill="black"/>
<path d="M4.43358 1101.81L51.9081 1064.12C53.0389 1063.22 54.6308 1063.19 55.7939 1064.05L107.044 1101.75C108.706 1102.97 108.793 1105.42 107.221 1106.76L55.9784 1150.37C54.7479 1151.41 52.9299 1151.38 51.7399 1150.29L4.25869 1106.68C2.81028 1105.35 2.89335 1103.04 4.43358 1101.81Z" fill="black"/>
<path d="M4.43358 1198.41L51.9081 1160.72C53.0389 1159.82 54.6308 1159.79 55.7939 1160.65L107.044 1198.35C108.706 1199.57 108.793 1202.02 107.221 1203.36L55.9784 1246.97C54.7479 1248.01 52.9299 1247.98 51.7399 1246.89L4.25869 1203.28C2.81028 1201.95 2.89335 1199.64 4.43358 1198.41Z" fill="black"/>
<path d="M1073.03 39.2127L1120.51 1.52084C1121.64 0.623057 1123.23 0.593732 1124.39 1.44926L1175.64 39.1466C1177.31 40.3697 1177.39 42.8238 1175.82 44.1615L1124.58 87.7664C1123.35 88.8135 1121.53 88.7791 1120.34 87.6861L1072.86 44.0756C1071.41 42.7453 1071.49 40.4356 1073.03 39.2127Z" fill="black"/>
<path d="M1073.03 135.813L1120.51 98.1208C1121.64 97.223 1123.23 97.1937 1124.39 98.0492L1175.64 135.747C1177.31 136.97 1177.39 139.424 1175.82 140.761L1124.58 184.366C1123.35 185.414 1121.53 185.379 1120.34 184.286L1072.86 140.676C1071.41 139.345 1071.49 137.036 1073.03 135.813Z" fill="black"/>
<path d="M1073.03 232.413L1120.51 194.721C1121.64 193.823 1123.23 193.794 1124.39 194.649L1175.64 232.347C1177.31 233.57 1177.39 236.024 1175.82 237.361L1124.58 280.966C1123.35 282.013 1121.53 281.979 1120.34 280.886L1072.86 237.276C1071.41 235.945 1071.49 233.636 1073.03 232.413Z" fill="black"/>
<path d="M1073.03 329.013L1120.51 291.321C1121.64 290.423 1123.23 290.394 1124.39 291.249L1175.64 328.947C1177.31 330.17 1177.39 332.624 1175.82 333.962L1124.58 377.566C1123.35 378.614 1121.53 378.579 1120.34 377.486L1072.86 333.876C1071.41 332.545 1071.49 330.236 1073.03 329.013Z" fill="black"/>
<path d="M1073.03 425.613L1120.51 387.921C1121.64 387.023 1123.23 386.994 1124.39 387.849L1175.64 425.547C1177.31 426.77 1177.39 429.224 1175.82 430.562L1124.58 474.166C1123.35 475.214 1121.53 475.179 1120.34 474.086L1072.86 430.476C1071.41 429.145 1071.49 426.836 1073.03 425.613Z" fill="black"/>
<path d="M1073.03 522.213L1120.51 484.521C1121.64 483.623 1123.23 483.594 1124.39 484.449L1175.64 522.147C1177.31 523.37 1177.39 525.824 1175.82 527.161L1124.58 570.766C1123.35 571.814 1121.53 571.779 1120.34 570.686L1072.86 527.076C1071.41 525.745 1071.49 523.436 1073.03 522.213Z" fill="black"/>
<path d="M1073.03 618.813L1120.51 581.121C1121.64 580.223 1123.23 580.194 1124.39 581.049L1175.64 618.747C1177.31 619.97 1177.39 622.424 1175.82 623.761L1124.58 667.366C1123.35 668.414 1121.53 668.379 1120.34 667.286L1072.86 623.676C1071.41 622.345 1071.49 620.036 1073.03 618.813Z" fill="black"/>
<path d="M1073.03 715.413L1120.51 677.721C1121.64 676.823 1123.23 676.794 1124.39 677.649L1175.64 715.347C1177.31 716.57 1177.39 719.024 1175.82 720.361L1124.58 763.966C1123.35 765.013 1121.53 764.979 1120.34 763.886L1072.86 720.276C1071.41 718.945 1071.49 716.636 1073.03 715.413Z" fill="black"/>
<path d="M1073.03 812.013L1120.51 774.321C1121.64 773.423 1123.23 773.394 1124.39 774.249L1175.64 811.947C1177.31 813.17 1177.39 815.624 1175.82 816.961L1124.58 860.566C1123.35 861.613 1121.53 861.579 1120.34 860.486L1072.86 816.876C1071.41 815.545 1071.49 813.235 1073.03 812.013Z" fill="black"/>
<path d="M1073.03 908.613L1120.51 870.921C1121.64 870.023 1123.23 869.994 1124.39 870.849L1175.64 908.547C1177.31 909.77 1177.39 912.224 1175.82 913.561L1124.58 957.166C1123.35 958.213 1121.53 958.179 1120.34 957.086L1072.86 913.476C1071.41 912.145 1071.49 909.835 1073.03 908.613Z" fill="black"/>
<path d="M1073.03 1005.21L1120.51 967.521C1121.64 966.623 1123.23 966.594 1124.39 967.449L1175.64 1005.15C1177.31 1006.37 1177.39 1008.82 1175.82 1010.16L1124.58 1053.77C1123.35 1054.81 1121.53 1054.78 1120.34 1053.69L1072.86 1010.08C1071.41 1008.75 1071.49 1006.44 1073.03 1005.21Z" fill="black"/>
<path d="M1073.03 1101.81L1120.51 1064.12C1121.64 1063.22 1123.23 1063.19 1124.39 1064.05L1175.64 1101.75C1177.31 1102.97 1177.39 1105.42 1175.82 1106.76L1124.58 1150.37C1123.35 1151.41 1121.53 1151.38 1120.34 1150.29L1072.86 1106.68C1071.41 1105.35 1071.49 1103.04 1073.03 1101.81Z" fill="black"/>
<path d="M1073.03 1198.41L1120.51 1160.72C1121.64 1159.82 1123.23 1159.79 1124.39 1160.65L1175.64 1198.35C1177.31 1199.57 1177.39 1202.02 1175.82 1203.36L1124.58 1246.97C1123.35 1248.01 1121.53 1247.98 1120.34 1246.89L1072.86 1203.28C1071.41 1201.95 1071.49 1199.64 1073.03 1198.41Z" fill="black"/>
<path d="M1191.23 39.2127L1238.71 1.52084C1239.84 0.623057 1241.43 0.593732 1242.59 1.44926L1293.84 39.1466C1295.51 40.3697 1295.59 42.8238 1294.02 44.1615L1242.78 87.7664C1241.55 88.8135 1239.73 88.7791 1238.54 87.6861L1191.06 44.0756C1189.61 42.7453 1189.69 40.4356 1191.23 39.2127Z" fill="black"/>
<path d="M1191.23 135.813L1238.71 98.1208C1239.84 97.223 1241.43 97.1937 1242.59 98.0492L1293.84 135.747C1295.51 136.97 1295.59 139.424 1294.02 140.761L1242.78 184.366C1241.55 185.414 1239.73 185.379 1238.54 184.286L1191.06 140.676C1189.61 139.345 1189.69 137.036 1191.23 135.813Z" fill="black"/>
<path d="M1191.23 232.413L1238.71 194.721C1239.84 193.823 1241.43 193.794 1242.59 194.649L1293.84 232.347C1295.51 233.57 1295.59 236.024 1294.02 237.361L1242.78 280.966C1241.55 282.013 1239.73 281.979 1238.54 280.886L1191.06 237.276C1189.61 235.945 1189.69 233.636 1191.23 232.413Z" fill="black"/>
<path d="M1191.23 329.013L1238.71 291.321C1239.84 290.423 1241.43 290.394 1242.59 291.249L1293.84 328.947C1295.51 330.17 1295.59 332.624 1294.02 333.962L1242.78 377.566C1241.55 378.614 1239.73 378.579 1238.54 377.486L1191.06 333.876C1189.61 332.545 1189.69 330.236 1191.23 329.013Z" fill="black"/>
<path d="M1191.23 425.613L1238.71 387.921C1239.84 387.023 1241.43 386.994 1242.59 387.849L1293.84 425.547C1295.51 426.77 1295.59 429.224 1294.02 430.562L1242.78 474.166C1241.55 475.214 1239.73 475.179 1238.54 474.086L1191.06 430.476C1189.61 429.145 1189.69 426.836 1191.23 425.613Z" fill="black"/>
<path d="M1191.23 522.213L1238.71 484.521C1239.84 483.623 1241.43 483.594 1242.59 484.449L1293.84 522.147C1295.51 523.37 1295.59 525.824 1294.02 527.161L1242.78 570.766C1241.55 571.814 1239.73 571.779 1238.54 570.686L1191.06 527.076C1189.61 525.745 1189.69 523.436 1191.23 522.213Z" fill="black"/>
<path d="M1191.23 618.813L1238.71 581.121C1239.84 580.223 1241.43 580.194 1242.59 581.049L1293.84 618.747C1295.51 619.97 1295.59 622.424 1294.02 623.761L1242.78 667.366C1241.55 668.414 1239.73 668.379 1238.54 667.286L1191.06 623.676C1189.61 622.345 1189.69 620.036 1191.23 618.813Z" fill="black"/>
<path d="M1191.23 715.413L1238.71 677.721C1239.84 676.823 1241.43 676.794 1242.59 677.649L1293.84 715.347C1295.51 716.57 1295.59 719.024 1294.02 720.361L1242.78 763.966C1241.55 765.013 1239.73 764.979 1238.54 763.886L1191.06 720.276C1189.61 718.945 1189.69 716.636 1191.23 715.413Z" fill="black"/>
<path d="M1191.23 812.013L1238.71 774.321C1239.84 773.423 1241.43 773.394 1242.59 774.249L1293.84 811.947C1295.51 813.17 1295.59 815.624 1294.02 816.961L1242.78 860.566C1241.55 861.613 1239.73 861.579 1238.54 860.486L1191.06 816.876C1189.61 815.545 1189.69 813.235 1191.23 812.013Z" fill="black"/>
<path d="M1191.23 908.613L1238.71 870.921C1239.84 870.023 1241.43 869.994 1242.59 870.849L1293.84 908.547C1295.51 909.77 1295.59 912.224 1294.02 913.561L1242.78 957.166C1241.55 958.213 1239.73 958.179 1238.54 957.086L1191.06 913.476C1189.61 912.145 1189.69 909.835 1191.23 908.613Z" fill="black"/>
<path d="M1191.23 1005.21L1238.71 967.521C1239.84 966.623 1241.43 966.594 1242.59 967.449L1293.84 1005.15C1295.51 1006.37 1295.59 1008.82 1294.02 1010.16L1242.78 1053.77C1241.55 1054.81 1239.73 1054.78 1238.54 1053.69L1191.06 1010.08C1189.61 1008.75 1189.69 1006.44 1191.23 1005.21Z" fill="black"/>
<path d="M1191.23 1101.81L1238.71 1064.12C1239.84 1063.22 1241.43 1063.19 1242.59 1064.05L1293.84 1101.75C1295.51 1102.97 1295.59 1105.42 1294.02 1106.76L1242.78 1150.37C1241.55 1151.41 1239.73 1151.38 1238.54 1150.29L1191.06 1106.68C1189.61 1105.35 1189.69 1103.04 1191.23 1101.81Z" fill="black"/>
<path d="M1191.23 1198.41L1238.71 1160.72C1239.84 1159.82 1241.43 1159.79 1242.59 1160.65L1293.84 1198.35C1295.51 1199.57 1295.59 1202.02 1294.02 1203.36L1242.78 1246.97C1241.55 1248.01 1239.73 1247.98 1238.54 1246.89L1191.06 1203.28C1189.61 1201.95 1189.69 1199.64 1191.23 1198.41Z" fill="black"/>
<path d="M1309.43 39.2127L1356.91 1.52084C1358.04 0.623057 1359.63 0.593732 1360.79 1.44926L1412.04 39.1466C1413.71 40.3697 1413.79 42.8238 1412.22 44.1615L1360.98 87.7664C1359.75 88.8135 1357.93 88.7791 1356.74 87.6861L1309.26 44.0756C1307.81 42.7453 1307.89 40.4356 1309.43 39.2127Z" fill="black"/>
<path d="M1309.43 135.813L1356.91 98.1208C1358.04 97.223 1359.63 97.1937 1360.79 98.0492L1412.04 135.747C1413.71 136.97 1413.79 139.424 1412.22 140.761L1360.98 184.366C1359.75 185.414 1357.93 185.379 1356.74 184.286L1309.26 140.676C1307.81 139.345 1307.89 137.036 1309.43 135.813Z" fill="black"/>
<path d="M1309.43 232.413L1356.91 194.721C1358.04 193.823 1359.63 193.794 1360.79 194.649L1412.04 232.347C1413.71 233.57 1413.79 236.024 1412.22 237.361L1360.98 280.966C1359.75 282.013 1357.93 281.979 1356.74 280.886L1309.26 237.276C1307.81 235.945 1307.89 233.636 1309.43 232.413Z" fill="black"/>
<path d="M1309.43 329.013L1356.91 291.321C1358.04 290.423 1359.63 290.394 1360.79 291.249L1412.04 328.947C1413.71 330.17 1413.79 332.624 1412.22 333.962L1360.98 377.566C1359.75 378.614 1357.93 378.579 1356.74 377.486L1309.26 333.876C1307.81 332.545 1307.89 330.236 1309.43 329.013Z" fill="black"/>
<path d="M1309.43 425.613L1356.91 387.921C1358.04 387.023 1359.63 386.994 1360.79 387.849L1412.04 425.547C1413.71 426.77 1413.79 429.224 1412.22 430.562L1360.98 474.166C1359.75 475.214 1357.93 475.179 1356.74 474.086L1309.26 430.476C1307.81 429.145 1307.89 426.836 1309.43 425.613Z" fill="black"/>
<path d="M1309.43 522.213L1356.91 484.521C1358.04 483.623 1359.63 483.594 1360.79 484.449L1412.04 522.147C1413.71 523.37 1413.79 525.824 1412.22 527.161L1360.98 570.766C1359.75 571.814 1357.93 571.779 1356.74 570.686L1309.26 527.076C1307.81 525.745 1307.89 523.436 1309.43 522.213Z" fill="black"/>
<path d="M1309.43 618.813L1356.91 581.121C1358.04 580.223 1359.63 580.194 1360.79 581.049L1412.04 618.747C1413.71 619.97 1413.79 622.424 1412.22 623.761L1360.98 667.366C1359.75 668.414 1357.93 668.379 1356.74 667.286L1309.26 623.676C1307.81 622.345 1307.89 620.036 1309.43 618.813Z" fill="black"/>
<path d="M1309.43 715.413L1356.91 677.721C1358.04 676.823 1359.63 676.794 1360.79 677.649L1412.04 715.347C1413.71 716.57 1413.79 719.024 1412.22 720.361L1360.98 763.966C1359.75 765.013 1357.93 764.979 1356.74 763.886L1309.26 720.276C1307.81 718.945 1307.89 716.636 1309.43 715.413Z" fill="black"/>
<path d="M1309.43 812.013L1356.91 774.321C1358.04 773.423 1359.63 773.394 1360.79 774.249L1412.04 811.947C1413.71 813.17 1413.79 815.624 1412.22 816.961L1360.98 860.566C1359.75 861.613 1357.93 861.579 1356.74 860.486L1309.26 816.876C1307.81 815.545 1307.89 813.235 1309.43 812.013Z" fill="black"/>
<path d="M1309.43 908.613L1356.91 870.921C1358.04 870.023 1359.63 869.994 1360.79 870.849L1412.04 908.547C1413.71 909.77 1413.79 912.224 1412.22 913.561L1360.98 957.166C1359.75 958.213 1357.93 958.179 1356.74 957.086L1309.26 913.476C1307.81 912.145 1307.89 909.835 1309.43 908.613Z" fill="black"/>
<path d="M1309.43 1005.21L1356.91 967.521C1358.04 966.623 1359.63 966.594 1360.79 967.449L1412.04 1005.15C1413.71 1006.37 1413.79 1008.82 1412.22 1010.16L1360.98 1053.77C1359.75 1054.81 1357.93 1054.78 1356.74 1053.69L1309.26 1010.08C1307.81 1008.75 1307.89 1006.44 1309.43 1005.21Z" fill="black"/>
<path d="M1309.43 1101.81L1356.91 1064.12C1358.04 1063.22 1359.63 1063.19 1360.79 1064.05L1412.04 1101.75C1413.71 1102.97 1413.79 1105.42 1412.22 1106.76L1360.98 1150.37C1359.75 1151.41 1357.93 1151.38 1356.74 1150.29L1309.26 1106.68C1307.81 1105.35 1307.89 1103.04 1309.43 1101.81Z" fill="black"/>
<path d="M1309.43 1198.41L1356.91 1160.72C1358.04 1159.82 1359.63 1159.79 1360.79 1160.65L1412.04 1198.35C1413.71 1199.57 1413.79 1202.02 1412.22 1203.36L1360.98 1246.97C1359.75 1248.01 1357.93 1247.98 1356.74 1246.89L1309.26 1203.28C1307.81 1201.95 1307.89 1199.64 1309.43 1198.41Z" fill="black"/>
<path d="M1427.63 39.2127L1475.11 1.52084C1476.24 0.623057 1477.83 0.593732 1478.99 1.44926L1530.24 39.1466C1531.91 40.3697 1531.99 42.8238 1530.42 44.1615L1479.18 87.7664C1477.95 88.8135 1476.13 88.7791 1474.94 87.6861L1427.46 44.0756C1426.01 42.7453 1426.09 40.4356 1427.63 39.2127Z" fill="black"/>
<path d="M1427.63 135.813L1475.11 98.1208C1476.24 97.223 1477.83 97.1937 1478.99 98.0492L1530.24 135.747C1531.91 136.97 1531.99 139.424 1530.42 140.761L1479.18 184.366C1477.95 185.414 1476.13 185.379 1474.94 184.286L1427.46 140.676C1426.01 139.345 1426.09 137.036 1427.63 135.813Z" fill="black"/>
<path d="M1427.63 232.413L1475.11 194.721C1476.24 193.823 1477.83 193.794 1478.99 194.649L1530.24 232.347C1531.91 233.57 1531.99 236.024 1530.42 237.361L1479.18 280.966C1477.95 282.013 1476.13 281.979 1474.94 280.886L1427.46 237.276C1426.01 235.945 1426.09 233.636 1427.63 232.413Z" fill="black"/>
<path d="M1427.63 329.013L1475.11 291.321C1476.24 290.423 1477.83 290.394 1478.99 291.249L1530.24 328.947C1531.91 330.17 1531.99 332.624 1530.42 333.962L1479.18 377.566C1477.95 378.614 1476.13 378.579 1474.94 377.486L1427.46 333.876C1426.01 332.545 1426.09 330.236 1427.63 329.013Z" fill="black"/>
<path d="M1427.63 425.613L1475.11 387.921C1476.24 387.023 1477.83 386.994 1478.99 387.849L1530.24 425.547C1531.91 426.77 1531.99 429.224 1530.42 430.562L1479.18 474.166C1477.95 475.214 1476.13 475.179 1474.94 474.086L1427.46 430.476C1426.01 429.145 1426.09 426.836 1427.63 425.613Z" fill="black"/>
<path d="M1427.63 522.213L1475.11 484.521C1476.24 483.623 1477.83 483.594 1478.99 484.449L1530.24 522.147C1531.91 523.37 1531.99 525.824 1530.42 527.161L1479.18 570.766C1477.95 571.814 1476.13 571.779 1474.94 570.686L1427.46 527.076C1426.01 525.745 1426.09 523.436 1427.63 522.213Z" fill="black"/>
<path d="M1427.63 618.813L1475.11 581.121C1476.24 580.223 1477.83 580.194 1478.99 581.049L1530.24 618.747C1531.91 619.97 1531.99 622.424 1530.42 623.761L1479.18 667.366C1477.95 668.414 1476.13 668.379 1474.94 667.286L1427.46 623.676C1426.01 622.345 1426.09 620.036 1427.63 618.813Z" fill="black"/>
<path d="M1427.63 715.413L1475.11 677.721C1476.24 676.823 1477.83 676.794 1478.99 677.649L1530.24 715.347C1531.91 716.57 1531.99 719.024 1530.42 720.361L1479.18 763.966C1477.95 765.013 1476.13 764.979 1474.94 763.886L1427.46 720.276C1426.01 718.945 1426.09 716.636 1427.63 715.413Z" fill="black"/>
<path d="M1427.63 812.013L1475.11 774.321C1476.24 773.423 1477.83 773.394 1478.99 774.249L1530.24 811.947C1531.91 813.17 1531.99 815.624 1530.42 816.961L1479.18 860.566C1477.95 861.613 1476.13 861.579 1474.94 860.486L1427.46 816.876C1426.01 815.545 1426.09 813.235 1427.63 812.013Z" fill="black"/>
<path d="M1427.63 908.613L1475.11 870.921C1476.24 870.023 1477.83 869.994 1478.99 870.849L1530.24 908.547C1531.91 909.77 1531.99 912.224 1530.42 913.561L1479.18 957.166C1477.95 958.213 1476.13 958.179 1474.94 957.086L1427.46 913.476C1426.01 912.145 1426.09 909.835 1427.63 908.613Z" fill="black"/>
<path d="M1427.63 1005.21L1475.11 967.521C1476.24 966.623 1477.83 966.594 1478.99 967.449L1530.24 1005.15C1531.91 1006.37 1531.99 1008.82 1530.42 1010.16L1479.18 1053.77C1477.95 1054.81 1476.13 1054.78 1474.94 1053.69L1427.46 1010.08C1426.01 1008.75 1426.09 1006.44 1427.63 1005.21Z" fill="black"/>
<path d="M1427.63 1101.81L1475.11 1064.12C1476.24 1063.22 1477.83 1063.19 1478.99 1064.05L1530.24 1101.75C1531.91 1102.97 1531.99 1105.42 1530.42 1106.76L1479.18 1150.37C1477.95 1151.41 1476.13 1151.38 1474.94 1150.29L1427.46 1106.68C1426.01 1105.35 1426.09 1103.04 1427.63 1101.81Z" fill="black"/>
<path d="M1427.63 1198.41L1475.11 1160.72C1476.24 1159.82 1477.83 1159.79 1478.99 1160.65L1530.24 1198.35C1531.91 1199.57 1531.99 1202.02 1530.42 1203.36L1479.18 1246.97C1477.95 1248.01 1476.13 1247.98 1474.94 1246.89L1427.46 1203.28C1426.01 1201.95 1426.09 1199.64 1427.63 1198.41Z" fill="black"/>
<path d="M1545.83 39.2127L1593.31 1.52084C1594.44 0.623057 1596.03 0.593732 1597.19 1.44926L1648.44 39.1466C1650.11 40.3697 1650.19 42.8238 1648.62 44.1615L1597.38 87.7664C1596.15 88.8135 1594.33 88.7791 1593.14 87.6861L1545.66 44.0756C1544.21 42.7453 1544.29 40.4356 1545.83 39.2127Z" fill="black"/>
<path d="M1545.83 135.813L1593.31 98.1208C1594.44 97.223 1596.03 97.1937 1597.19 98.0492L1648.44 135.747C1650.11 136.97 1650.19 139.424 1648.62 140.761L1597.38 184.366C1596.15 185.414 1594.33 185.379 1593.14 184.286L1545.66 140.676C1544.21 139.345 1544.29 137.036 1545.83 135.813Z" fill="black"/>
<path d="M1545.83 232.413L1593.31 194.721C1594.44 193.823 1596.03 193.794 1597.19 194.649L1648.44 232.347C1650.11 233.57 1650.19 236.024 1648.62 237.361L1597.38 280.966C1596.15 282.013 1594.33 281.979 1593.14 280.886L1545.66 237.276C1544.21 235.945 1544.29 233.636 1545.83 232.413Z" fill="black"/>
<path d="M1545.83 329.013L1593.31 291.321C1594.44 290.423 1596.03 290.394 1597.19 291.249L1648.44 328.947C1650.11 330.17 1650.19 332.624 1648.62 333.962L1597.38 377.566C1596.15 378.614 1594.33 378.579 1593.14 377.486L1545.66 333.876C1544.21 332.545 1544.29 330.236 1545.83 329.013Z" fill="black"/>
<path d="M1545.83 425.613L1593.31 387.921C1594.44 387.023 1596.03 386.994 1597.19 387.849L1648.44 425.547C1650.11 426.77 1650.19 429.224 1648.62 430.562L1597.38 474.166C1596.15 475.214 1594.33 475.179 1593.14 474.086L1545.66 430.476C1544.21 429.145 1544.29 426.836 1545.83 425.613Z" fill="black"/>
<path d="M1545.83 522.213L1593.31 484.521C1594.44 483.623 1596.03 483.594 1597.19 484.449L1648.44 522.147C1650.11 523.37 1650.19 525.824 1648.62 527.161L1597.38 570.766C1596.15 571.814 1594.33 571.779 1593.14 570.686L1545.66 527.076C1544.21 525.745 1544.29 523.436 1545.83 522.213Z" fill="black"/>
<path d="M1545.83 618.813L1593.31 581.121C1594.44 580.223 1596.03 580.194 1597.19 581.049L1648.44 618.747C1650.11 619.97 1650.19 622.424 1648.62 623.761L1597.38 667.366C1596.15 668.414 1594.33 668.379 1593.14 667.286L1545.66 623.676C1544.21 622.345 1544.29 620.036 1545.83 618.813Z" fill="black"/>
<path d="M1545.83 715.413L1593.31 677.721C1594.44 676.823 1596.03 676.794 1597.19 677.649L1648.44 715.347C1650.11 716.57 1650.19 719.024 1648.62 720.361L1597.38 763.966C1596.15 765.013 1594.33 764.979 1593.14 763.886L1545.66 720.276C1544.21 718.945 1544.29 716.636 1545.83 715.413Z" fill="black"/>
<path d="M1545.83 812.013L1593.31 774.321C1594.44 773.423 1596.03 773.394 1597.19 774.249L1648.44 811.947C1650.11 813.17 1650.19 815.624 1648.62 816.961L1597.38 860.566C1596.15 861.613 1594.33 861.579 1593.14 860.486L1545.66 816.876C1544.21 815.545 1544.29 813.235 1545.83 812.013Z" fill="black"/>
<path d="M1545.83 908.613L1593.31 870.921C1594.44 870.023 1596.03 869.994 1597.19 870.849L1648.44 908.547C1650.11 909.77 1650.19 912.224 1648.62 913.561L1597.38 957.166C1596.15 958.213 1594.33 958.179 1593.14 957.086L1545.66 913.476C1544.21 912.145 1544.29 909.835 1545.83 908.613Z" fill="black"/>
<path d="M1545.83 1005.21L1593.31 967.521C1594.44 966.623 1596.03 966.594 1597.19 967.449L1648.44 1005.15C1650.11 1006.37 1650.19 1008.82 1648.62 1010.16L1597.38 1053.77C1596.15 1054.81 1594.33 1054.78 1593.14 1053.69L1545.66 1010.08C1544.21 1008.75 1544.29 1006.44 1545.83 1005.21Z" fill="black"/>
<path d="M1545.83 1101.81L1593.31 1064.12C1594.44 1063.22 1596.03 1063.19 1597.19 1064.05L1648.44 1101.75C1650.11 1102.97 1650.19 1105.42 1648.62 1106.76L1597.38 1150.37C1596.15 1151.41 1594.33 1151.38 1593.14 1150.29L1545.66 1106.68C1544.21 1105.35 1544.29 1103.04 1545.83 1101.81Z" fill="black"/>
<path d="M1545.83 1198.41L1593.31 1160.72C1594.44 1159.82 1596.03 1159.79 1597.19 1160.65L1648.44 1198.35C1650.11 1199.57 1650.19 1202.02 1648.62 1203.36L1597.38 1246.97C1596.15 1248.01 1594.33 1247.98 1593.14 1246.89L1545.66 1203.28C1544.21 1201.95 1544.29 1199.64 1545.83 1198.41Z" fill="black"/>
<path d="M1664.03 39.2127L1711.51 1.52084C1712.64 0.623057 1714.23 0.593732 1715.39 1.44926L1766.64 39.1466C1768.31 40.3697 1768.39 42.8238 1766.82 44.1615L1715.58 87.7664C1714.35 88.8135 1712.53 88.7791 1711.34 87.6861L1663.86 44.0756C1662.41 42.7453 1662.49 40.4356 1664.03 39.2127Z" fill="black"/>
<path d="M1664.03 135.813L1711.51 98.1208C1712.64 97.223 1714.23 97.1937 1715.39 98.0492L1766.64 135.747C1768.31 136.97 1768.39 139.424 1766.82 140.761L1715.58 184.366C1714.35 185.414 1712.53 185.379 1711.34 184.286L1663.86 140.676C1662.41 139.345 1662.49 137.036 1664.03 135.813Z" fill="black"/>
<path d="M1664.03 232.413L1711.51 194.721C1712.64 193.823 1714.23 193.794 1715.39 194.649L1766.64 232.347C1768.31 233.57 1768.39 236.024 1766.82 237.361L1715.58 280.966C1714.35 282.013 1712.53 281.979 1711.34 280.886L1663.86 237.276C1662.41 235.945 1662.49 233.636 1664.03 232.413Z" fill="black"/>
<path d="M1664.03 329.013L1711.51 291.321C1712.64 290.423 1714.23 290.394 1715.39 291.249L1766.64 328.947C1768.31 330.17 1768.39 332.624 1766.82 333.962L1715.58 377.566C1714.35 378.614 1712.53 378.579 1711.34 377.486L1663.86 333.876C1662.41 332.545 1662.49 330.236 1664.03 329.013Z" fill="black"/>
<path d="M1664.03 425.613L1711.51 387.921C1712.64 387.023 1714.23 386.994 1715.39 387.849L1766.64 425.547C1768.31 426.77 1768.39 429.224 1766.82 430.562L1715.58 474.166C1714.35 475.214 1712.53 475.179 1711.34 474.086L1663.86 430.476C1662.41 429.145 1662.49 426.836 1664.03 425.613Z" fill="black"/>
<path d="M1664.03 522.213L1711.51 484.521C1712.64 483.623 1714.23 483.594 1715.39 484.449L1766.64 522.147C1768.31 523.37 1768.39 525.824 1766.82 527.161L1715.58 570.766C1714.35 571.814 1712.53 571.779 1711.34 570.686L1663.86 527.076C1662.41 525.745 1662.49 523.436 1664.03 522.213Z" fill="black"/>
<path d="M1664.03 618.813L1711.51 581.121C1712.64 580.223 1714.23 580.194 1715.39 581.049L1766.64 618.747C1768.31 619.97 1768.39 622.424 1766.82 623.761L1715.58 667.366C1714.35 668.414 1712.53 668.379 1711.34 667.286L1663.86 623.676C1662.41 622.345 1662.49 620.036 1664.03 618.813Z" fill="black"/>
<path d="M1664.03 715.413L1711.51 677.721C1712.64 676.823 1714.23 676.794 1715.39 677.649L1766.64 715.347C1768.31 716.57 1768.39 719.024 1766.82 720.361L1715.58 763.966C1714.35 765.013 1712.53 764.979 1711.34 763.886L1663.86 720.276C1662.41 718.945 1662.49 716.636 1664.03 715.413Z" fill="black"/>
<path d="M1664.03 812.013L1711.51 774.321C1712.64 773.423 1714.23 773.394 1715.39 774.249L1766.64 811.947C1768.31 813.17 1768.39 815.624 1766.82 816.961L1715.58 860.566C1714.35 861.613 1712.53 861.579 1711.34 860.486L1663.86 816.876C1662.41 815.545 1662.49 813.235 1664.03 812.013Z" fill="black"/>
<path d="M1664.03 908.613L1711.51 870.921C1712.64 870.023 1714.23 869.994 1715.39 870.849L1766.64 908.547C1768.31 909.77 1768.39 912.224 1766.82 913.561L1715.58 957.166C1714.35 958.213 1712.53 958.179 1711.34 957.086L1663.86 913.476C1662.41 912.145 1662.49 909.835 1664.03 908.613Z" fill="black"/>
<path d="M1664.03 1005.21L1711.51 967.521C1712.64 966.623 1714.23 966.594 1715.39 967.449L1766.64 1005.15C1768.31 1006.37 1768.39 1008.82 1766.82 1010.16L1715.58 1053.77C1714.35 1054.81 1712.53 1054.78 1711.34 1053.69L1663.86 1010.08C1662.41 1008.75 1662.49 1006.44 1664.03 1005.21Z" fill="black"/>
<path d="M1664.03 1101.81L1711.51 1064.12C1712.64 1063.22 1714.23 1063.19 1715.39 1064.05L1766.64 1101.75C1768.31 1102.97 1768.39 1105.42 1766.82 1106.76L1715.58 1150.37C1714.35 1151.41 1712.53 1151.38 1711.34 1150.29L1663.86 1106.68C1662.41 1105.35 1662.49 1103.04 1664.03 1101.81Z" fill="black"/>
<path d="M1664.03 1198.41L1711.51 1160.72C1712.64 1159.82 1714.23 1159.79 1715.39 1160.65L1766.64 1198.35C1768.31 1199.57 1768.39 1202.02 1766.82 1203.36L1715.58 1246.97C1714.35 1248.01 1712.53 1247.98 1711.34 1246.89L1663.86 1203.28C1662.41 1201.95 1662.49 1199.64 1664.03 1198.41Z" fill="black"/>
<path d="M1782.23 39.2127L1829.71 1.52084C1830.84 0.623057 1832.43 0.593732 1833.59 1.44926L1884.84 39.1466C1886.51 40.3697 1886.59 42.8238 1885.02 44.1615L1833.78 87.7664C1832.55 88.8135 1830.73 88.7791 1829.54 87.6861L1782.06 44.0756C1780.61 42.7453 1780.69 40.4356 1782.23 39.2127Z" fill="black"/>
<path d="M1782.23 135.813L1829.71 98.1208C1830.84 97.223 1832.43 97.1937 1833.59 98.0492L1884.84 135.747C1886.51 136.97 1886.59 139.424 1885.02 140.761L1833.78 184.366C1832.55 185.414 1830.73 185.379 1829.54 184.286L1782.06 140.676C1780.61 139.345 1780.69 137.036 1782.23 135.813Z" fill="black"/>
<path d="M1782.23 232.413L1829.71 194.721C1830.84 193.823 1832.43 193.794 1833.59 194.649L1884.84 232.347C1886.51 233.57 1886.59 236.024 1885.02 237.361L1833.78 280.966C1832.55 282.013 1830.73 281.979 1829.54 280.886L1782.06 237.276C1780.61 235.945 1780.69 233.636 1782.23 232.413Z" fill="black"/>
<path d="M1782.23 329.013L1829.71 291.321C1830.84 290.423 1832.43 290.394 1833.59 291.249L1884.84 328.947C1886.51 330.17 1886.59 332.624 1885.02 333.962L1833.78 377.566C1832.55 378.614 1830.73 378.579 1829.54 377.486L1782.06 333.876C1780.61 332.545 1780.69 330.236 1782.23 329.013Z" fill="black"/>
<path d="M1782.23 425.613L1829.71 387.921C1830.84 387.023 1832.43 386.994 1833.59 387.849L1884.84 425.547C1886.51 426.77 1886.59 429.224 1885.02 430.562L1833.78 474.166C1832.55 475.214 1830.73 475.179 1829.54 474.086L1782.06 430.476C1780.61 429.145 1780.69 426.836 1782.23 425.613Z" fill="black"/>
<path d="M1782.23 522.213L1829.71 484.521C1830.84 483.623 1832.43 483.594 1833.59 484.449L1884.84 522.147C1886.51 523.37 1886.59 525.824 1885.02 527.161L1833.78 570.766C1832.55 571.814 1830.73 571.779 1829.54 570.686L1782.06 527.076C1780.61 525.745 1780.69 523.436 1782.23 522.213Z" fill="black"/>
<path d="M1782.23 618.813L1829.71 581.121C1830.84 580.223 1832.43 580.194 1833.59 581.049L1884.84 618.747C1886.51 619.97 1886.59 622.424 1885.02 623.761L1833.78 667.366C1832.55 668.414 1830.73 668.379 1829.54 667.286L1782.06 623.676C1780.61 622.345 1780.69 620.036 1782.23 618.813Z" fill="black"/>
<path d="M1782.23 715.413L1829.71 677.721C1830.84 676.823 1832.43 676.794 1833.59 677.649L1884.84 715.347C1886.51 716.57 1886.59 719.024 1885.02 720.361L1833.78 763.966C1832.55 765.013 1830.73 764.979 1829.54 763.886L1782.06 720.276C1780.61 718.945 1780.69 716.636 1782.23 715.413Z" fill="black"/>
<path d="M1782.23 812.013L1829.71 774.321C1830.84 773.423 1832.43 773.394 1833.59 774.249L1884.84 811.947C1886.51 813.17 1886.59 815.624 1885.02 816.961L1833.78 860.566C1832.55 861.613 1830.73 861.579 1829.54 860.486L1782.06 816.876C1780.61 815.545 1780.69 813.235 1782.23 812.013Z" fill="black"/>
<path d="M1782.23 908.613L1829.71 870.921C1830.84 870.023 1832.43 869.994 1833.59 870.849L1884.84 908.547C1886.51 909.77 1886.59 912.224 1885.02 913.561L1833.78 957.166C1832.55 958.213 1830.73 958.179 1829.54 957.086L1782.06 913.476C1780.61 912.145 1780.69 909.835 1782.23 908.613Z" fill="black"/>
<path d="M1782.23 1005.21L1829.71 967.521C1830.84 966.623 1832.43 966.594 1833.59 967.449L1884.84 1005.15C1886.51 1006.37 1886.59 1008.82 1885.02 1010.16L1833.78 1053.77C1832.55 1054.81 1830.73 1054.78 1829.54 1053.69L1782.06 1010.08C1780.61 1008.75 1780.69 1006.44 1782.23 1005.21Z" fill="black"/>
<path d="M1782.23 1101.81L1829.71 1064.12C1830.84 1063.22 1832.43 1063.19 1833.59 1064.05L1884.84 1101.75C1886.51 1102.97 1886.59 1105.42 1885.02 1106.76L1833.78 1150.37C1832.55 1151.41 1830.73 1151.38 1829.54 1150.29L1782.06 1106.68C1780.61 1105.35 1780.69 1103.04 1782.23 1101.81Z" fill="black"/>
<path d="M1782.23 1198.41L1829.71 1160.72C1830.84 1159.82 1832.43 1159.79 1833.59 1160.65L1884.84 1198.35C1886.51 1199.57 1886.59 1202.02 1885.02 1203.36L1833.78 1246.97C1832.55 1248.01 1830.73 1247.98 1829.54 1246.89L1782.06 1203.28C1780.61 1201.95 1780.69 1199.64 1782.23 1198.41Z" fill="black"/>
<path d="M1900.43 39.2127L1947.91 1.52084C1949.04 0.623057 1950.63 0.593732 1951.79 1.44926L2003.04 39.1466C2004.71 40.3697 2004.79 42.8238 2003.22 44.1615L1951.98 87.7664C1950.75 88.8135 1948.93 88.7791 1947.74 87.6861L1900.26 44.0756C1898.81 42.7453 1898.89 40.4356 1900.43 39.2127Z" fill="black"/>
<path d="M1900.43 135.813L1947.91 98.1208C1949.04 97.223 1950.63 97.1937 1951.79 98.0492L2003.04 135.747C2004.71 136.97 2004.79 139.424 2003.22 140.761L1951.98 184.366C1950.75 185.414 1948.93 185.379 1947.74 184.286L1900.26 140.676C1898.81 139.345 1898.89 137.036 1900.43 135.813Z" fill="black"/>
<path d="M1900.43 232.413L1947.91 194.721C1949.04 193.823 1950.63 193.794 1951.79 194.649L2003.04 232.347C2004.71 233.57 2004.79 236.024 2003.22 237.361L1951.98 280.966C1950.75 282.013 1948.93 281.979 1947.74 280.886L1900.26 237.276C1898.81 235.945 1898.89 233.636 1900.43 232.413Z" fill="black"/>
<path d="M1900.43 329.013L1947.91 291.321C1949.04 290.423 1950.63 290.394 1951.79 291.249L2003.04 328.947C2004.71 330.17 2004.79 332.624 2003.22 333.962L1951.98 377.566C1950.75 378.614 1948.93 378.579 1947.74 377.486L1900.26 333.876C1898.81 332.545 1898.89 330.236 1900.43 329.013Z" fill="black"/>
<path d="M1900.43 425.613L1947.91 387.921C1949.04 387.023 1950.63 386.994 1951.79 387.849L2003.04 425.547C2004.71 426.77 2004.79 429.224 2003.22 430.562L1951.98 474.166C1950.75 475.214 1948.93 475.179 1947.74 474.086L1900.26 430.476C1898.81 429.145 1898.89 426.836 1900.43 425.613Z" fill="black"/>
<path d="M1900.43 522.213L1947.91 484.521C1949.04 483.623 1950.63 483.594 1951.79 484.449L2003.04 522.147C2004.71 523.37 2004.79 525.824 2003.22 527.161L1951.98 570.766C1950.75 571.814 1948.93 571.779 1947.74 570.686L1900.26 527.076C1898.81 525.745 1898.89 523.436 1900.43 522.213Z" fill="black"/>
<path d="M1900.43 618.813L1947.91 581.121C1949.04 580.223 1950.63 580.194 1951.79 581.049L2003.04 618.747C2004.71 619.97 2004.79 622.424 2003.22 623.761L1951.98 667.366C1950.75 668.414 1948.93 668.379 1947.74 667.286L1900.26 623.676C1898.81 622.345 1898.89 620.036 1900.43 618.813Z" fill="black"/>
<path d="M1900.43 715.413L1947.91 677.721C1949.04 676.823 1950.63 676.794 1951.79 677.649L2003.04 715.347C2004.71 716.57 2004.79 719.024 2003.22 720.361L1951.98 763.966C1950.75 765.013 1948.93 764.979 1947.74 763.886L1900.26 720.276C1898.81 718.945 1898.89 716.636 1900.43 715.413Z" fill="black"/>
<path d="M1900.43 812.013L1947.91 774.321C1949.04 773.423 1950.63 773.394 1951.79 774.249L2003.04 811.947C2004.71 813.17 2004.79 815.624 2003.22 816.961L1951.98 860.566C1950.75 861.613 1948.93 861.579 1947.74 860.486L1900.26 816.876C1898.81 815.545 1898.89 813.235 1900.43 812.013Z" fill="black"/>
<path d="M1900.43 908.613L1947.91 870.921C1949.04 870.023 1950.63 869.994 1951.79 870.849L2003.04 908.547C2004.71 909.77 2004.79 912.224 2003.22 913.561L1951.98 957.166C1950.75 958.213 1948.93 958.179 1947.74 957.086L1900.26 913.476C1898.81 912.145 1898.89 909.835 1900.43 908.613Z" fill="black"/>
<path d="M1900.43 1005.21L1947.91 967.521C1949.04 966.623 1950.63 966.594 1951.79 967.449L2003.04 1005.15C2004.71 1006.37 2004.79 1008.82 2003.22 1010.16L1951.98 1053.77C1950.75 1054.81 1948.93 1054.78 1947.74 1053.69L1900.26 1010.08C1898.81 1008.75 1898.89 1006.44 1900.43 1005.21Z" fill="black"/>
<path d="M1900.43 1101.81L1947.91 1064.12C1949.04 1063.22 1950.63 1063.19 1951.79 1064.05L2003.04 1101.75C2004.71 1102.97 2004.79 1105.42 2003.22 1106.76L1951.98 1150.37C1950.75 1151.41 1948.93 1151.38 1947.74 1150.29L1900.26 1106.68C1898.81 1105.35 1898.89 1103.04 1900.43 1101.81Z" fill="black"/>
<path d="M1900.43 1198.41L1947.91 1160.72C1949.04 1159.82 1950.63 1159.79 1951.79 1160.65L2003.04 1198.35C2004.71 1199.57 2004.79 1202.02 2003.22 1203.36L1951.98 1246.97C1950.75 1248.01 1948.93 1247.98 1947.74 1246.89L1900.26 1203.28C1898.81 1201.95 1898.89 1199.64 1900.43 1198.41Z" fill="black"/>
<path d="M2018.63 39.2127L2066.11 1.52084C2067.24 0.623057 2068.83 0.593732 2069.99 1.44926L2121.24 39.1466C2122.91 40.3697 2122.99 42.8238 2121.42 44.1615L2070.18 87.7664C2068.95 88.8135 2067.13 88.7791 2065.94 87.6861L2018.46 44.0756C2017.01 42.7453 2017.09 40.4356 2018.63 39.2127Z" fill="black"/>
<path d="M2018.63 135.813L2066.11 98.1208C2067.24 97.223 2068.83 97.1937 2069.99 98.0492L2121.24 135.747C2122.91 136.97 2122.99 139.424 2121.42 140.761L2070.18 184.366C2068.95 185.414 2067.13 185.379 2065.94 184.286L2018.46 140.676C2017.01 139.345 2017.09 137.036 2018.63 135.813Z" fill="black"/>
<path d="M2018.63 232.413L2066.11 194.721C2067.24 193.823 2068.83 193.794 2069.99 194.649L2121.24 232.347C2122.91 233.57 2122.99 236.024 2121.42 237.361L2070.18 280.966C2068.95 282.013 2067.13 281.979 2065.94 280.886L2018.46 237.276C2017.01 235.945 2017.09 233.636 2018.63 232.413Z" fill="black"/>
<path d="M2018.63 329.013L2066.11 291.321C2067.24 290.423 2068.83 290.394 2069.99 291.249L2121.24 328.947C2122.91 330.17 2122.99 332.624 2121.42 333.962L2070.18 377.566C2068.95 378.614 2067.13 378.579 2065.94 377.486L2018.46 333.876C2017.01 332.545 2017.09 330.236 2018.63 329.013Z" fill="black"/>
<path d="M2018.63 425.613L2066.11 387.921C2067.24 387.023 2068.83 386.994 2069.99 387.849L2121.24 425.547C2122.91 426.77 2122.99 429.224 2121.42 430.562L2070.18 474.166C2068.95 475.214 2067.13 475.179 2065.94 474.086L2018.46 430.476C2017.01 429.145 2017.09 426.836 2018.63 425.613Z" fill="black"/>
<path d="M2018.63 522.213L2066.11 484.521C2067.24 483.623 2068.83 483.594 2069.99 484.449L2121.24 522.147C2122.91 523.37 2122.99 525.824 2121.42 527.161L2070.18 570.766C2068.95 571.814 2067.13 571.779 2065.94 570.686L2018.46 527.076C2017.01 525.745 2017.09 523.436 2018.63 522.213Z" fill="black"/>
<path d="M2018.63 618.813L2066.11 581.121C2067.24 580.223 2068.83 580.194 2069.99 581.049L2121.24 618.747C2122.91 619.97 2122.99 622.424 2121.42 623.761L2070.18 667.366C2068.95 668.414 2067.13 668.379 2065.94 667.286L2018.46 623.676C2017.01 622.345 2017.09 620.036 2018.63 618.813Z" fill="black"/>
<path d="M2018.63 715.413L2066.11 677.721C2067.24 676.823 2068.83 676.794 2069.99 677.649L2121.24 715.347C2122.91 716.57 2122.99 719.024 2121.42 720.361L2070.18 763.966C2068.95 765.013 2067.13 764.979 2065.94 763.886L2018.46 720.276C2017.01 718.945 2017.09 716.636 2018.63 715.413Z" fill="black"/>
<path d="M2018.63 812.013L2066.11 774.321C2067.24 773.423 2068.83 773.394 2069.99 774.249L2121.24 811.947C2122.91 813.17 2122.99 815.624 2121.42 816.961L2070.18 860.566C2068.95 861.613 2067.13 861.579 2065.94 860.486L2018.46 816.876C2017.01 815.545 2017.09 813.235 2018.63 812.013Z" fill="black"/>
<path d="M2018.63 908.613L2066.11 870.921C2067.24 870.023 2068.83 869.994 2069.99 870.849L2121.24 908.547C2122.91 909.77 2122.99 912.224 2121.42 913.561L2070.18 957.166C2068.95 958.213 2067.13 958.179 2065.94 957.086L2018.46 913.476C2017.01 912.145 2017.09 909.835 2018.63 908.613Z" fill="black"/>
<path d="M2018.63 1005.21L2066.11 967.521C2067.24 966.623 2068.83 966.594 2069.99 967.449L2121.24 1005.15C2122.91 1006.37 2122.99 1008.82 2121.42 1010.16L2070.18 1053.77C2068.95 1054.81 2067.13 1054.78 2065.94 1053.69L2018.46 1010.08C2017.01 1008.75 2017.09 1006.44 2018.63 1005.21Z" fill="black"/>
<path d="M2018.63 1101.81L2066.11 1064.12C2067.24 1063.22 2068.83 1063.19 2069.99 1064.05L2121.24 1101.75C2122.91 1102.97 2122.99 1105.42 2121.42 1106.76L2070.18 1150.37C2068.95 1151.41 2067.13 1151.38 2065.94 1150.29L2018.46 1106.68C2017.01 1105.35 2017.09 1103.04 2018.63 1101.81Z" fill="black"/>
<path d="M2018.63 1198.41L2066.11 1160.72C2067.24 1159.82 2068.83 1159.79 2069.99 1160.65L2121.24 1198.35C2122.91 1199.57 2122.99 1202.02 2121.42 1203.36L2070.18 1246.97C2068.95 1248.01 2067.13 1247.98 2065.94 1246.89L2018.46 1203.28C2017.01 1201.95 2017.09 1199.64 2018.63 1198.41Z" fill="black"/>
</svg>
