<svg width="104" height="69" viewBox="0 0 104 69" fill="none" xmlns="http://www.w3.org/2000/svg">
<path d="M44.3041 1.0455C39.4053 1.60387 34.4991 1.97608 29.6003 2.58657C24.7015 3.19705 20.1601 5.02107 15.641 6.96421C6.25291 10.9919 2.00183 18.5039 1.19033 28.1973C0.445833 36.8483 1.77848 45.1271 7.09418 52.3711C10.7124 57.2922 15.6261 60.4265 21.2396 62.593C27.4577 64.931 33.9739 66.3821 40.5965 66.9036C44.858 67.3778 49.144 67.5966 53.4316 67.5588C64.882 67.2163 76.1834 65.7571 86.934 61.4465C91.0361 59.8011 94.1779 56.8232 96.806 53.3017C100.633 48.1647 102.144 42.2757 102.367 35.9996C102.559 32.2734 102.437 28.5378 102.003 24.8321C101.417 20.6736 99.602 16.7848 96.7911 13.6647C91.6541 7.77571 85.1472 4.52972 77.4342 2.97372C66.8847 0.837013 56.2533 0.993346 45.607 1.00824H44.4902" fill="white"/>
<path d="M44.3041 1.0455C39.4053 1.60387 34.4991 1.97608 29.6003 2.58657C24.7015 3.19705 20.1601 5.02107 15.641 6.96421C6.25291 10.9919 2.00183 18.5039 1.19033 28.1973C0.445833 36.8483 1.77848 45.1271 7.09418 52.3711C10.7124 57.2922 15.6261 60.4265 21.2396 62.593C27.4577 64.931 33.9739 66.3821 40.5965 66.9036C44.858 67.3778 49.144 67.5966 53.4316 67.5588C64.882 67.2163 76.1834 65.7571 86.934 61.4465C91.0361 59.8011 94.1779 56.8232 96.806 53.3017C100.633 48.1647 102.144 42.2757 102.367 35.9996C102.559 32.2734 102.437 28.5378 102.003 24.8321C101.417 20.6736 99.602 16.7848 96.7911 13.6647C91.6541 7.77571 85.1472 4.52972 77.4342 2.97372C66.8847 0.837013 56.2533 0.993346 45.607 1.00824H44.4902" stroke="black" stroke-width="2" stroke-linecap="round" stroke-linejoin="round"/>
</svg>
