<svg width="153" height="91" viewBox="0 0 153 91" fill="none" xmlns="http://www.w3.org/2000/svg">
<path d="M4.98177 35.2418C-2.52682 27.6178 7.23437 16.762 14.0377 16.762C14.0377 9.10192 26.9368 4.12673 33.5159 9.10192C37.6581 2.02085 50.3896 0.0769699 57.9202 5.47132C60.7759 0.562941 76.8579 0.0769699 82.3244 5.47132C85.7365 -0.409176 103.159 -0.571156 107.855 5.47132C112.707 1.04875 125.596 3.36664 127.784 9.95821C134.553 5.47132 142.614 16.9356 140.077 21.9879C147.049 20.5444 150.526 35.2682 144.871 38.7925C152.915 40.7535 153.96 55.0443 147.049 57.4214C151.123 63.4167 141.521 74.8204 132.635 72.2735C128.402 81.3588 124.401 83.4018 114.613 82.076C109.863 88.2359 100.394 89.5103 92.1396 85.0761C86.637 90.3971 72.8804 90.9883 66.155 85.0761C59.8449 91.1845 31.3016 89.3038 33.5159 78.0824C21.241 81.2339 7.23437 78.0824 9.86252 65.7385C2.17107 64.8861 -0.294594 54.6222 7.23437 51.2163C-0.649916 47.9489 -0.649787 38.1464 4.98177 35.2418Z" fill="white" stroke="black" stroke-width="2" stroke-linecap="round" stroke-linejoin="round"/>
</svg>
