<svg width="46" height="35" viewBox="0 0 46 35" fill="none" xmlns="http://www.w3.org/2000/svg">
<path d="M16.542 7.39647C15.9161 11.9377 20.8412 15.2148 28.1993 16.2289C35.5574 17.2431 43.4756 15.7362 44.1015 11.195C44.7274 6.6537 39.1403 3.09031 31.7822 2.07614C22.8882 0.183172 17.3421 1.59153 16.542 7.39647Z" fill="white" stroke="black" stroke-width="2" stroke-linecap="round" stroke-linejoin="round"/>
<path d="M6.55572 20.7145C6.18249 23.4225 9.92539 25.4876 15.4371 26.2473C20.9488 27.007 26.8264 26.2678 27.1996 23.5599C27.5728 20.8519 23.33 18.6015 17.8183 17.8418C11.1423 16.5239 7.0328 17.2531 6.55572 20.7145Z" fill="white" stroke="black" stroke-width="2" stroke-linecap="round" stroke-linejoin="round"/>
<path d="M10.9248 30.9193C10.748 32.8416 8.75028 33.7464 6.10283 33.503C3.45538 33.2596 0.832116 31.9299 1.00887 30.0075C1.18562 28.0851 3.4385 27.1221 6.08595 27.3655C9.34395 27.3856 11.1507 28.4619 10.9248 30.9193Z" fill="white" stroke="black" stroke-width="2" stroke-linecap="round" stroke-linejoin="round"/>
</svg>
